<?xml version="1.0" encoding="UTF-8" standalone="no"?>
<!-- Created with Inkscape (http://www.inkscape.org/) -->

<svg
   xmlns:dc="http://purl.org/dc/elements/1.1/"
   xmlns:cc="http://creativecommons.org/ns#"
   xmlns:rdf="http://www.w3.org/1999/02/22-rdf-syntax-ns#"
   xmlns:svg="http://www.w3.org/2000/svg"
   xmlns="http://www.w3.org/2000/svg"
   xmlns:sodipodi="http://sodipodi.sourceforge.net/DTD/sodipodi-0.dtd"
   xmlns:inkscape="http://www.inkscape.org/namespaces/inkscape"
   width="210mm"
   height="297mm"
   viewBox="0 0 744.09448819 1052.3622047"
   id="svg4114"
   version="1.1"
   inkscape:version="0.91 r13725"
   sodipodi:docname="TDLogo.svg">
  <defs
     id="defs4116" />
  <sodipodi:namedview
     id="base"
     pagecolor="#ffffff"
     bordercolor="#666666"
     borderopacity="1.0"
     inkscape:pageopacity="0.0"
     inkscape:pageshadow="2"
     inkscape:zoom="1.5953064"
     inkscape:cx="366.58493"
     inkscape:cy="520.64073"
     inkscape:document-units="px"
     inkscape:current-layer="layer1"
     showgrid="false"
     inkscape:window-width="1920"
     inkscape:window-height="1031"
     inkscape:window-x="0"
     inkscape:window-y="0"
     inkscape:window-maximized="1" />
  <metadata
     id="metadata4119">
    <rdf:RDF>
      <cc:Work
         rdf:about="">
        <dc:format>image/svg+xml</dc:format>
        <dc:type
           rdf:resource="http://purl.org/dc/dcmitype/StillImage" />
        <dc:title />
      </cc:Work>
    </rdf:RDF>
  </metadata>
  <g
     inkscape:label="Capa 1"
     inkscape:groupmode="layer"
     id="layer1">
    <path
       sodipodi:nodetypes="ccccc"
       inkscape:connector-curvature="0"
       id="path3358-4-5-4-6"
       d="M 300.23117,569.97257 410.24016,421.29354 397.65202,394.10904 C 308.05658,415.9249 219.33465,440.66225 72.684771,478.32655 Z"
       style="opacity:0.9;fill:#c87137;fill-rule:evenodd;stroke:#000000;stroke-width:0.96674222px;stroke-linecap:butt;stroke-linejoin:miter;stroke-opacity:1"
       inkscape:export-xdpi="176.60217"
       inkscape:export-ydpi="176.60217" />
    <path
       inkscape:connector-curvature="0"
       id="path3639"
       d="m 70.906171,342.89778 c -0.1895,0.17144 -0.3552,0.39433 -0.5011,0.66524 -0.5848,1.00576 -0.8855,2.93706 -0.9007,5.79058 0,0 0.1912,38.18198 0.1912,38.18198 0.022,1.2361 0.028,2.46591 0.017,3.68835 0,0 -0.018,1.71905 -0.018,1.71905 0.05,2.77793 0.3744,5.00719 0.9716,6.69186 0.6291,1.61973 1.5299,2.65878 2.7034,3.1104 1.5079,0.58044 2.4986,0.19472 2.9738,-1.15121 0.5074,-1.41018 0.7449,-4.99024 0.7109,-10.7456 0,0 -0.024,-29.96831 -0.024,-29.96831 0,0 14.42686,5.67514 14.42686,5.67514 0,0 1.66383,103.44575 1.66383,103.44575 0,0 -7.65349,-2.85571 -7.65349,-2.85571 0,0 -1.6425,-0.61578 -1.6425,-0.61578 -1.5608,-0.5825 -2.6638,-0.39013 -3.3074,0.5777 -0.6105,0.98022 -0.8906,2.87542 -0.8418,5.6848 0.046,2.65615 0.3795,4.81506 1.0021,6.47714 0.6209,1.5855 1.4966,2.58957 2.6241,3.00689 0,0 27.748789,10.27095 27.748789,10.27095 1.11488,0.41275 1.95693,0.0488 2.52768,-1.0867 0.5697,-1.21083 0.83631,-3.13156 0.79931,-5.7665 -0.0381,-2.71161 -0.37752,-4.78895 -1.01782,-6.22752 -0.64168,-1.5147 -1.65175,-2.52689 -3.03132,-3.04182 0,0 -1.92299,-0.71736 -1.92299,-0.71736 0,0 -7.60629,-2.83968 -7.60629,-2.83968 0,0 -1.583369,-103.26179 -1.583369,-103.26179 0,0 14.302879,5.62635 14.302879,5.62635 0,0 0.91388,30.10089 0.91388,30.10089 0.14586,5.7568 0.47677,9.52638 0.99379,11.31942 0.51572,1.71589 1.43259,2.83076 2.75044,3.33796 1.25133,0.48168 2.18079,0.19297 2.78879,-0.8612 0.60698,-1.13039 0.89238,-3.06588 0.85606,-5.81028 0.001,0.0763 -0.0234,-0.50294 -0.0725,-1.73601 -0.0491,-1.23341 -0.0829,-2.5374 -0.10113,-3.91132 0,0 -1.04708,-38.13952 -1.04708,-38.13952 -0.0709,-2.85924 -0.41187,-5.0239 -1.02396,-6.49171 -0.61341,-1.54552 -1.55009,-2.56693 -2.80908,-3.06614 0,0 -43.566679,-17.27529 -43.566679,-17.27529 -0.9608,-0.3811 -1.7261,-0.31517 -2.2946,0.19908 0,0 0,-8e-5 0,-8e-5 m 64.424729,55.52746 c -0.20195,0.17749 -0.38265,0.40665 -0.54258,0.68598 -0.60781,1.05387 -0.89566,2.9176 -0.86346,5.58633 0.0377,3.12456 0.45658,5.44451 1.25771,6.96769 0.79978,1.4463 2.78827,2.78724 5.96045,4.01636 0,0 3.33142,1.29068 3.33142,1.29068 0,0 0.80185,72.49217 0.80185,72.49217 0,0 -8.47298,-3.16209 -8.47298,-3.16209 -1.39859,-0.522 -2.43158,-0.272 -3.09958,0.74895 -0.63546,1.03313 -0.93694,2.86493 -0.90471,5.48995 0.0332,2.69864 0.38178,4.84169 1.04861,6.43079 0.66647,1.58833 1.6331,2.61726 2.89967,3.08606 0,0 31.65363,11.71734 31.65363,11.71734 1.50662,0.55762 2.52728,0.38052 3.06228,-0.53102 0.5664,-0.97389 0.83622,-2.98438 0.81039,-6.02957 -0.0227,-2.67532 -0.34323,-4.71997 -0.96262,-6.13713 -0.58825,-1.48027 -1.5078,-2.45758 -2.75983,-2.9249 0,0 -16.04304,-5.98565 -16.04304,-5.98565 0,0 -0.48346,-46.62982 -0.48346,-46.62982 3.31547,-7.7487 6.34798,-13.16396 9.09606,-16.24276 2.77894,-3.14085 5.43003,-4.22165 7.95266,-3.24402 1.3896,0.53854 2.9661,2.31612 4.72815,5.32779 1.79167,2.94543 3.05798,4.55795 3.79858,4.84397 1.06223,0.41018 2.01889,-0.26839 2.87132,-2.03906 0.88408,-1.83359 1.3157,-4.14341 1.2948,-6.92959 -0.0323,-4.29517 -0.94409,-8.14434 -2.73737,-11.55328 -1.79548,-3.41309 -4.13159,-5.68576 -7.00852,-6.81117 -3.85181,-1.50666 -7.43018,-0.71447 -10.73132,2.37775 -3.30271,3.09371 -6.45379,8.55056 -9.45061,16.36637 0,0 -0.20011,-19.33551 -0.20011,-19.33551 -0.0158,-1.51962 -0.25495,-2.75011 -0.71925,-3.68838 -0.46523,-1.01461 -1.13875,-1.69217 -2.01965,-2.03627 0,0 -11.18556,-4.37059 -11.18556,-4.37059 -0.98348,-0.3841 -1.77711,-0.30977 -2.38293,0.22267 0,0 0,-4e-5 0,-4e-5 m 55.77244,21.77435 c -0.20089,0.17511 -0.37877,0.40367 -0.53697,0.67992 -0.60123,1.04226 -0.89374,2.87894 -0.87597,5.51296 0.0203,3.00866 0.43602,5.27049 1.24548,6.78363 0.809,1.51236 2.30175,2.68758 4.47784,3.53074 0,0 1.00717,0.39395 1.00717,0.39395 0,0 0.30783,50.38224 0.30783,50.38224 0.0802,13.13091 1.44176,23.42374 4.07958,30.89121 2.66302,7.38847 6.5975,12.03836 11.80041,13.96187 2.39286,0.88457 4.65387,0.73217 6.78339,-0.45799 2.15963,-1.25136 4.73543,-4.03087 7.72894,-8.34128 0,0 0.0238,7.47913 0.0238,7.47913 0.004,1.39225 0.2435,2.57884 0.71589,3.55861 0.47221,0.97942 1.1296,1.62423 1.97458,1.93698 0,0 7.12398,2.63801 7.12398,2.63801 1.21655,0.4503 2.13546,0.13181 2.75631,-0.95192 0.65203,-1.07218 0.97522,-2.92268 0.97027,-5.55389 -0.005,-2.70573 -0.35084,-4.77221 -1.03959,-6.19919 -0.65786,-1.41607 -1.75306,-2.40827 -3.28411,-2.97971 0,0 -2.15712,-0.8066 -2.15712,-0.8066 0,0 -0.18996,-76.01014 -0.18996,-76.01014 -0.012,-4.76437 -0.27158,-7.8398 -0.77935,-9.22931 -0.47663,-1.45238 -1.3144,-2.41391 -2.51444,-2.88268 0,0 -10.11329,-3.94993 -10.11329,-3.94993 -1.33242,-0.52054 -2.29852,-0.22658 -2.89624,0.88489 -0.5977,1.11144 -0.88995,3.08764 -0.87815,5.92895 0.0109,2.6156 0.28926,4.66503 0.83364,6.1435 0.57551,1.41549 1.48073,2.36306 2.7162,2.84175 0,0 6.49967,2.51775 6.49967,2.51775 0,0 0.14627,45.92656 0.14627,45.92656 0.0244,7.67041 -1.17965,13.58145 -3.61365,17.74173 -2.40257,4.17202 -5.32006,5.61628 -8.75374,4.33574 -3.62779,-1.35287 -6.29177,-4.48094 -7.98971,-9.38958 -1.70047,-4.91599 -2.57527,-12.03995 -2.62574,-21.38204 0,0 -0.002,8.8e-4 -0.002,8.8e-4 0,0 -0.28928,-53.5961 -0.28928,-53.5961 -0.0194,-3.60021 -0.2559,-6.01476 -0.70865,-7.24033 -0.42096,-1.21355 -1.19049,-2.03802 -2.30913,-2.47502 0,0 -7.25146,-2.83417 -7.25146,-2.83417 -0.98607,-0.38522 -1.78063,-0.31669 -2.38323,0.20856 0,0 2.5e-4,3.2e-4 2.5e-4,3.2e-4"
       style="font-style:normal;font-variant:normal;font-weight:normal;font-stretch:normal;font-size:112.5px;line-height:125%;font-family:Courier;-inkscape-font-specification:Courier;letter-spacing:0px;word-spacing:0px;fill:#000000;fill-opacity:1;stroke:none;stroke-width:1px;stroke-linecap:butt;stroke-linejoin:miter;stroke-opacity:1"
       inkscape:export-xdpi="176.60217"
       inkscape:export-ydpi="176.60217" />
    <path
       sodipodi:nodetypes="ccccc"
       inkscape:connector-curvature="0"
       id="path3566"
       d="M 240.58438,413.4388 372.61506,760.34296 473.57969,599.83508 350.60994,252.93093 Z"
       style="opacity:0.9;fill:#502d16;fill-rule:evenodd;stroke:#000000;stroke-width:1px;stroke-linecap:butt;stroke-linejoin:miter;stroke-opacity:1"
       inkscape:export-xdpi="176.60217"
       inkscape:export-ydpi="176.60217" />
    <path
       sodipodi:nodetypes="cccc"
       inkscape:connector-curvature="0"
       id="path3358-4-5-4-6-4"
       d="M 641.81102,606.87027 442.02551,510.36399 333.37852,656.46657 Z"
       style="opacity:0.9;fill:#c87137;fill-rule:evenodd;stroke:#000000;stroke-width:0.98849607px;stroke-linecap:butt;stroke-linejoin:miter;stroke-opacity:1"
       inkscape:export-xdpi="176.60217"
       inkscape:export-ydpi="176.60217" />
    <g
       transform="matrix(0.95954083,0.00561896,-0.00610262,1.0421294,-191.59939,46.141351)"
       style="font-style:normal;font-weight:normal;font-size:87.64807892px;line-height:125%;font-family:Sans;letter-spacing:0px;word-spacing:0px;fill:#000000;fill-opacity:1;stroke:none;stroke-width:1px;stroke-linecap:butt;stroke-linejoin:miter;stroke-opacity:1"
       id="text3614"
       inkscape:export-xdpi="176.60217"
       inkscape:export-ydpi="176.60217">
      <path
         d="m 694.54572,442.51643 c 0.98999,0.61052 1.9637,1.1801 2.92115,1.70877 0.98688,0.47227 1.94212,0.89741 2.86577,1.27545 7.56378,3.09576 13.03355,1.5817 16.42319,-4.53736 3.4208,-6.10735 5.02219,-17.31376 4.80335,-33.65173 -0.22037,-16.45154 -2.15065,-29.18355 -5.79685,-38.17825 -3.65579,-9.08562 -9.40104,-15.29662 -17.24373,-18.62296 -1.45909,-0.61885 -2.57659,-1.05811 -3.35216,-1.31764 -0.74467,-0.2464 -1.44179,-0.40311 -2.09132,-0.47008 0,0 1.47059,93.79368 1.47059,93.79368 0,0 10e-6,1.2e-4 10e-6,1.2e-4 m 0.22808,14.54689 c 0,0 -7.30873,-2.97546 -7.30873,-2.97546 0,0 -2.08468,-0.84869 -2.08468,-0.84869 -1.14329,-0.46544 -2.01906,-1.43743 -2.62717,-2.91626 -0.57741,-1.46681 -0.88697,-3.44089 -0.92851,-5.92259 -0.045,-2.68967 0.24885,-4.41951 0.88163,-5.1886 0.6637,-0.7564 1.92381,-0.75457 3.77954,0.005 0,0 0.83472,0.34173 0.83472,0.34173 0,0 -1.52866,-93.92428 -1.52866,-93.92428 0,0 -0.74793,-0.31716 -0.74793,-0.31716 -1.87062,-0.79324 -3.17441,-1.90292 -3.91078,-3.32915 -0.70545,-1.41356 -1.08177,-3.52379 -1.12876,-6.33123 -0.0435,-2.59805 0.20598,-4.37485 0.74843,-5.32957 0.57254,-1.01169 1.46792,-1.25781 2.68578,-0.73849 0,0 2.01313,0.85843 2.01313,0.85843 0,0 7.38615,3.14957 7.38615,3.14957 0,0 10.30255,4.39316 10.30255,4.39316 7.71661,3.29049 13.93171,11.52335 18.64771,24.67205 4.6996,13.03619 7.16421,28.98384 7.4048,47.83072 0.11694,9.16054 -0.43207,17.38218 -1.64608,24.67053 -1.18237,7.29447 -2.97228,13.3785 -5.37017,18.25626 -2.22135,4.40401 -4.967,7.16385 -8.23877,8.28059 -3.24418,1.06146 -7.45917,0.53732 -12.6498,-1.5755 -0.61483,-0.25026 -1.66138,-0.74445 -3.14009,-1.4828 -1.44864,-0.72619 -2.57353,-1.25239 -3.37431,-1.57839 0,0 0,0 0,0"
         style="font-style:normal;font-variant:normal;font-weight:normal;font-stretch:normal;font-size:112.5px;font-family:Courier;-inkscape-font-specification:Courier"
         id="path3836"
         inkscape:connector-curvature="0" />
      <path
         d="m 775.43288,475.6304 c 2.31385,0.94726 3.78981,2.05779 4.42899,3.33178 0.66837,1.21808 1.01402,3.18069 1.03711,5.88726 0.0237,2.77296 -0.28969,4.56535 -0.94007,5.37816 -0.62098,0.75745 -2.08636,0.66601 -4.39741,-0.27483 0,0 -27.45705,-11.17803 -27.45705,-11.17803 0,0 -2.13604,-0.8696 -2.13604,-0.8696 -1.09129,-0.44428 -1.93228,-1.39624 -2.52285,-2.85618 -0.5908,-1.46053 -0.90065,-3.41711 -0.92939,-5.8701 -0.032,-2.72671 0.28054,-4.43131 0.93747,-5.11283 0.65611,-0.74971 2.15275,-0.64614 4.48866,0.31015 0,0 10.26348,4.20171 10.26348,4.20171 0,0 -0.96449,-92.64543 -0.96449,-92.64543 0,0 -10.34441,-4.38655 -10.34441,-4.38655 -2.29318,-0.97243 -3.79831,-2.12767 -4.51434,-3.46559 -0.71712,-1.40776 -1.09245,-3.53327 -1.12578,-6.37709 -0.0301,-2.56753 0.23911,-4.31781 0.8076,-5.25003 0.56768,-1.00166 1.43364,-1.25428 2.59755,-0.75797 0,0 2.06639,0.88115 2.06639,0.88115 0,0 27.74159,11.82944 27.74159,11.82944 0,0 2.13785,0.91161 2.13785,0.91161 1.0911,0.46526 1.91455,1.43473 2.47046,2.9081 0.58598,1.48571 0.88947,3.46843 0.91062,5.94783 0.0241,2.82251 -0.30709,4.63606 -0.99351,5.44165 -0.65679,0.74965 -2.12029,0.64316 -4.3917,-0.32003 0,0 -10.28732,-4.36236 -10.28732,-4.36236 0,0 0.9093,92.51907 0.9093,92.51907 0,0 10.20729,4.17871 10.20729,4.17871 0,0 0,0 0,0"
         style="font-style:normal;font-variant:normal;font-weight:normal;font-stretch:normal;font-size:112.5px;font-family:Courier;-inkscape-font-specification:Courier"
         id="path3838"
         inkscape:connector-curvature="0" />
      <path
         d="m 803.87282,497.95556 c -0.12873,2.96744 -0.45705,4.91338 -0.98501,5.83881 -0.52749,0.99265 -1.37161,1.25312 -2.53267,0.78127 -1.25087,-0.50833 -2.19532,-1.73091 -2.83321,-3.66828 -0.6079,-1.85881 -0.97009,-4.65964 -1.08643,-8.40365 0,0 -0.75333,-23.75211 -0.75333,-23.75211 0,0 -0.0133,-1.82827 -0.0133,-1.82827 -0.0237,-3.25163 0.2288,-5.44472 0.75754,-6.57799 0.55868,-1.12097 1.48116,-1.41552 2.76701,-0.88378 1.79334,0.7416 3.09754,4.1848 3.91265,10.32432 0.37735,3.0547 0.73487,5.39206 1.07265,7.01304 1.07397,5.1539 2.73518,9.46736 4.98261,12.94173 2.27458,3.48255 4.96954,5.85938 8.0845,7.13254 3.82269,1.56242 6.90584,0.77936 9.25282,-2.34757 2.37637,-3.11455 3.55032,-7.86334 3.522,-14.25169 -0.0236,-5.31758 -0.78281,-9.90157 -2.27882,-13.75135 -1.46788,-3.8414 -3.61432,-6.82156 -6.44046,-8.93928 0,0 -6.61493,-4.77362 -6.61493,-4.77362 -6.18308,-4.53133 -10.71737,-10.10796 -13.59606,-16.73104 -2.88392,-6.6351 -4.36332,-14.90176 -4.43435,-24.80312 -0.0751,-10.46528 1.75665,-18.46509 5.49518,-23.98567 3.76843,-5.50759 8.48835,-7.05045 14.15214,-4.63207 1.64626,0.70294 3.38407,1.95718 5.21305,3.76196 1.82726,1.73504 3.89469,4.15143 6.20144,7.24759 0.0506,-1.95482 0.28286,-3.21911 0.69692,-3.79241 0.41405,-0.57328 1.12789,-0.64359 2.14129,-0.21103 1.31096,0.55958 2.22122,1.39103 2.73108,2.49427 0.5097,1.1029 0.8308,3.35067 0.96336,6.74206 0,0 0.70996,21.59306 0.70996,21.59306 0,0 0.004,1.01856 0.004,1.01856 0.01,2.37596 -0.27978,4.11709 -0.86786,5.22406 -0.58833,1.0391 -1.41685,1.33378 -2.48582,0.88394 -1.57445,-0.66254 -2.80429,-3.68794 -3.68969,-9.08044 -0.42976,-3.03235 -0.85646,-5.35188 -1.28001,-6.95766 -0.99916,-3.82148 -2.42773,-7.04559 -4.28632,-9.67155 -1.86026,-2.62834 -3.97128,-4.44472 -6.33315,-5.44794 -3.62102,-1.53805 -6.55929,-0.73887 -8.81174,2.399 -2.22258,3.15072 -3.31212,8.04096 -3.26859,14.66519 0.0341,5.18504 0.89934,9.62723 2.59452,13.32704 1.72331,3.70851 4.32007,6.83017 7.78826,9.36544 0,0 7.16029,5.0246 7.16029,5.0246 5.17984,3.71922 9.08376,8.96163 11.71568,15.72351 2.62698,6.68245 3.95706,14.80056 3.9937,24.35179 0.0433,11.28044 -1.76442,19.57568 -5.42311,24.9018 -3.65917,5.25941 -8.57648,6.63394 -14.761,4.11966 -2.1334,-0.86733 -4.25679,-2.2997 -6.37045,-4.29797 -2.11549,-1.99998 -4.37071,-4.69501 -6.76638,-8.08675 0,0 0,0 0,0"
         style="font-style:normal;font-variant:normal;font-weight:normal;font-stretch:normal;font-size:112.5px;font-family:Courier;-inkscape-font-specification:Courier"
         id="path3840"
         inkscape:connector-curvature="0" />
      <path
         d="m 863.48814,420.98654 c 0,0 0.0767,46.90764 0.0767,46.90764 0,0 8.21584,3.42165 8.21584,3.42165 4.58901,1.91119 8.01844,1.39868 10.29327,-1.53518 2.27462,-2.93358 3.4126,-8.31957 3.4141,-16.16586 10e-4,-7.72214 -1.15147,-14.02463 -3.46125,-18.90513 -2.28373,-4.87492 -5.71304,-8.28441 -10.29065,-10.22554 0,0 -8.24799,-3.49758 -8.24799,-3.49758 0,0 0,0 0,0 m 9.29575,94.49789 c 1.42729,0.58431 2.46131,1.57264 3.10237,2.96476 0.64077,1.32513 0.96169,3.18322 0.96296,5.57393 10e-4,2.65522 -0.30284,4.38878 -0.91277,5.20158 -0.60994,0.8128 -1.77289,0.86991 -3.48955,0.17104 0,0 -21.42192,-8.72107 -21.42192,-8.72107 -0.99658,-0.40572 -1.76059,-1.31616 -2.29194,-2.73162 -0.53174,-1.48273 -0.80113,-3.39226 -0.80802,-5.72883 -0.007,-2.3375 0.23757,-3.97247 0.73339,-4.90422 0.52519,-0.91977 1.33082,-1.15735 2.4166,-0.71285 0,0 5.67216,2.32209 5.67216,2.32209 0,0 -0.20086,-90.87638 -0.20086,-90.87638 0,0 -3.1001,-1.3146 -3.1001,-1.3146 -2.60058,-1.10278 -4.22848,-2.30138 -4.88225,-3.59548 -0.62463,-1.34992 -0.94114,-3.41731 -0.94935,-6.20274 -0.007,-2.37883 0.25427,-4.06702 0.78387,-5.0639 0.52943,-1.06491 1.29758,-1.38271 2.3042,-0.95347 0,0 20.4903,8.73738 20.4903,8.73738 7.13743,3.0435 12.54543,8.52377 16.23015,16.43271 3.67646,7.89121 5.50662,17.97745 5.49669,30.2532 -0.01,12.25072 -1.83397,20.71523 -5.47257,25.41275 -3.63914,4.69821 -9.02845,5.56861 -16.17996,2.60556 0,0 -7.68076,-3.18232 -7.68076,-3.18232 0,0 0.05,30.56768 0.05,30.56768 0,0 9.14739,3.7448 9.14739,3.7448 0,0 0,0 0,0"
         style="font-style:normal;font-variant:normal;font-weight:normal;font-stretch:normal;font-size:112.5px;font-family:Courier;-inkscape-font-specification:Courier"
         id="path3842"
         inkscape:connector-curvature="0" />
    </g>
  </g>
</svg>
